<svg width="915" height="74" viewBox="0 0 915 74" fill="none" xmlns="http://www.w3.org/2000/svg">
<path d="M0 0H3.86478V55.0731H56.0393V73.4308H0V0Z" fill="#800000"/>
<path d="M77.2956 0H128.987V3.86478H81.1604V32.8506H123.19V36.7154H81.1604V69.566H128.987V73.4308H77.2956V0Z" fill="#800000"/>
<path d="M154.108 0H150.243V73.4308H209.664V0H205.799V50.6381L154.108 0.194578V0Z" fill="#800000"/>
<path d="M230.921 0V36.7154H284.061V69.566H230.921V73.4308H287.926V32.8506H234.785V3.86478H287.926V0H230.921Z" fill="#800000"/>
<path d="M309.182 0H342.999C346.362 0 349.691 0.662271 352.797 1.949C355.904 3.23573 358.726 5.12172 361.104 7.49928C363.482 9.87685 365.368 12.6994 366.654 15.8059C367.941 18.9123 368.603 22.2418 368.603 25.6042C368.603 28.9665 367.941 32.296 366.654 35.4024C365.368 38.5089 363.482 41.3315 361.104 43.709C358.726 46.0866 355.904 47.9726 352.797 49.2593C349.691 50.546 346.362 51.2083 342.999 51.2083H328.506V73.4308H309.182V0Z" fill="#800000"/>
<path d="M389.86 0V19.3239H412.082V54.1069H389.86V73.4308H438.169V54.1069H415.947V19.3239H438.169V0H389.86Z" fill="#800000"/>
<path fill-rule="evenodd" clip-rule="evenodd" d="M493.055 0.0111393C493.052 0.0110444 493.049 0.00857924 493.049 0.0055706C493.049 0.00249405 493.047 0 493.044 0H461.841C460.507 0 459.426 1.08145 459.426 2.41549V71.5025C459.426 72.5697 460.291 73.4349 461.358 73.4349H463.288L463.29 73.4343L463.29 73.4329L463.292 73.4308H511.651C513.618 73.4308 514.76 71.2057 513.614 69.6075L499.647 50.1345C498.647 48.7399 499.382 46.7612 500.967 46.1025C503.834 44.911 506.468 43.126 508.694 40.8226C513.029 36.338 515.465 30.2555 515.465 23.9133C515.465 17.5711 513.029 11.4887 508.694 7.00405C504.526 2.69184 498.929 0.196619 493.055 0.0111393ZM463.29 50.2421C463.29 48.9081 464.372 47.8266 465.706 47.8266H493.044C493.047 47.8266 493.049 47.8241 493.049 47.8211C493.049 47.8181 493.052 47.8156 493.055 47.8155C493.09 47.8144 493.126 47.8132 493.161 47.8119C493.2 47.8105 493.237 47.8285 493.26 47.8601L506.086 65.7427C507.232 67.341 506.09 69.566 504.123 69.566H465.706C464.372 69.566 463.29 68.4846 463.29 67.1505V50.2421ZM496.524 43.4846C495.642 43.6888 494.743 43.297 494.215 42.5611L469.203 7.68808C468.056 6.08982 469.199 3.86478 471.166 3.86478H492.639L492.928 3.87385C497.782 4.02592 502.432 6.0868 505.916 9.69016C509.541 13.4407 511.6 18.5546 511.6 23.9133C511.6 29.272 509.541 34.3859 505.916 38.1365C503.305 40.8368 500.039 42.6709 496.524 43.4846ZM467.669 12.1803C466.301 10.2727 463.29 11.2406 463.29 13.5881V41.5464C463.29 42.8804 464.372 43.9619 465.706 43.9619H485.759C487.726 43.9619 488.868 41.7368 487.722 40.1386L467.669 12.1803Z" fill="#800000"/>
<path d="M537.687 0V73.4308H589.379V69.566H541.552V36.7154H583.582V32.8506H541.552V3.86478H589.379V0H537.687Z" fill="#800000"/>
<path d="M693.728 0H725.129C740.07 0 752.183 12.1122 752.183 27.0534V46.3773C752.183 61.3186 740.07 73.4308 725.129 73.4308H693.728V0Z" fill="#800000"/>
<path d="M641.553 72.9477C646.889 72.9477 651.215 68.6219 651.215 63.2857C651.215 57.9496 646.889 53.6238 641.553 53.6238C636.217 53.6238 631.891 57.9496 631.891 63.2857C631.891 68.6219 636.217 72.9477 641.553 72.9477Z" fill="#800000"/>
<path d="M773.439 0H825.13V3.86478H777.304V32.8506H819.333V36.7154H777.304V69.566H825.13V73.4308H773.439V0Z" fill="#800000"/>
<path fill-rule="evenodd" clip-rule="evenodd" d="M880.693 72.8269L846.387 0H915L880.693 72.8269ZM908.907 3.86478L880.693 63.758L852.479 3.86478H908.907Z" fill="#800000"/>
</svg>
